<svg xmlns:xlink="http://www.w3.org/1999/xlink" xmlns="http://www.w3.org/2000/svg" style="width:100%;height:100%" viewBox="0 0 37 37" preserveAspectRatio="none" width="37" height="37"><defs><svg width="37" height="37" viewBox="0 0 37 37" fill="none" id="svg-1379507148_1328">
<path d="M18.194 36.694C28.2422 36.694 36.388 28.5483 36.388 18.5C36.388 8.45175 28.2422 0.30603 18.194 0.30603C8.14572 0.30603 0 8.45175 0 18.5C0 28.5483 8.14572 36.694 18.194 36.694Z" fill="url(&quot;#svg-1379507148_1328_paint0_linear_1094_35539&quot;)"></path>
<path d="M30.7028 25.7358L20.6455 26.7327C16.4179 27.1512 11.5772 24.3524 9.83392 20.4793L5.68359 11.2643L15.7409 10.2674C19.9685 9.84889 24.8092 12.6478 26.5525 16.5209L30.7028 25.7358Z" fill="#006E78"></path>
<path d="M19.7986 23.9819C19.9932 23.9819 20.1851 23.9725 20.3704 23.9539L26.5612 23.3395L25.5003 20.9844C24.2075 18.5894 21.0581 16.6995 18.2645 16.7008C18.07 16.7008 17.878 16.7101 17.6928 16.7288L11.502 17.3432L12.5629 19.6969C13.8557 22.092 17.0051 23.9819 19.7986 23.9805V23.9819Z" fill="#00DFD6"></path>
<defs>
<linearGradient id="svg-1379507148_1328_paint0_linear_1094_35539" x1="2.43368" y1="27.5998" x2="33.9525" y2="9.40243" gradientUnits="userSpaceOnUse">
<stop stop-color="#00DCD2"></stop>
<stop offset="0.13" stop-color="#04DCD2"></stop>
<stop offset="0.27" stop-color="#11DCD2"></stop>
<stop offset="0.42" stop-color="#26DCD3"></stop>
<stop offset="0.57" stop-color="#45DCD5"></stop>
<stop offset="0.72" stop-color="#6CDCD7"></stop>
<stop offset="0.87" stop-color="#9BDCD9"></stop>
<stop offset="1" stop-color="#C8DCDC"></stop>
</linearGradient>
<linearGradient id="svg-1379507148_1328_paint0_linear_1094_35539" x1="2.43368" y1="27.5998" x2="33.9525" y2="9.40243" gradientUnits="userSpaceOnUse">
<stop stop-color="#00DCD2"></stop>
<stop offset="0.13" stop-color="#04DCD2"></stop>
<stop offset="0.27" stop-color="#11DCD2"></stop>
<stop offset="0.42" stop-color="#26DCD3"></stop>
<stop offset="0.57" stop-color="#45DCD5"></stop>
<stop offset="0.72" stop-color="#6CDCD7"></stop>
<stop offset="0.87" stop-color="#9BDCD9"></stop>
<stop offset="1" stop-color="#C8DCDC"></stop>
</linearGradient></defs>
</svg></defs><use href="#svg-1379507148_1328"></use></svg>