<svg xmlns:xlink="http://www.w3.org/1999/xlink" xmlns="http://www.w3.org/2000/svg" style="width:100%;height:100%" viewBox="0 0 112 23" preserveAspectRatio="none" width="112" height="23"><defs><svg width="112" height="23" viewBox="0 0 112 23" fill="none" id="svg-189453272_11280">
<path d="M16.8873 4.01949C16.8287 4.59659 16.6114 5.1497 16.2356 5.68282C15.8597 6.21594 15.4759 6.61311 15.0854 6.877C14.3723 6.37854 13.5766 5.97337 12.697 5.6615C11.8174 5.34962 10.943 5.19235 10.0741 5.19235C9.05847 5.19235 8.15884 5.43626 7.37782 5.92539C6.5968 6.41453 5.98372 7.19287 5.53856 8.26311C5.09341 9.33334 4.87217 10.7421 4.87217 12.4907C4.87217 14.9231 5.32665 16.713 6.23428 17.8606C7.14324 19.0081 8.46671 19.5825 10.2047 19.5825C11.2016 19.5825 12.1092 19.4799 12.9302 19.2747C13.7512 19.0694 14.4056 18.8842 14.8934 18.7176L16.93 21.5018C16.3529 21.707 15.6718 21.9029 14.8855 22.0882C14.0991 22.2734 13.2488 22.4254 12.3358 22.5427C11.4229 22.66 10.4872 22.7186 9.53029 22.7186C7.98691 22.7186 6.6661 22.464 5.56655 21.9562C4.46699 21.4484 3.57136 20.7327 2.8783 19.8091C2.18392 18.8855 1.67213 17.7993 1.34026 16.5491C1.00839 15.2989 0.841797 13.9315 0.841797 12.4467C0.841797 10.6301 1.09369 9.05746 1.59616 7.72866C2.09862 6.39987 2.78368 5.30564 3.64733 4.44599C4.51231 3.58634 5.48392 2.94926 6.56348 2.53343C7.64305 2.11893 8.7546 1.91101 9.8968 1.91101C11.1763 1.91101 12.4264 2.1016 13.6486 2.48278C14.8695 2.86396 15.949 3.37709 16.8873 4.02083V4.01949ZM14.2657 11.3605C15.2626 11.3605 15.9557 11.5858 16.3462 12.0349C16.7367 12.4841 16.9326 13.0852 16.9326 13.8369V14.6725H11.3202C10.9484 14.6725 10.6192 14.6232 10.3313 14.5259C10.0434 14.4286 9.81816 14.2593 9.65689 14.0208C9.49563 13.7809 9.41566 13.4424 9.41566 13.0025C9.41566 12.7293 9.44498 12.4441 9.50363 12.1455C9.56227 11.8483 9.63024 11.5871 9.70887 11.3619H14.2657V11.3605ZM13.2248 16.6211C13.2248 15.9373 13.2474 15.2536 13.2901 14.5699C13.3341 13.8862 13.4287 13.2664 13.5753 12.7093L16.9313 13.8382V21.5018L13.2235 21.5604V16.6224L13.2248 16.6211Z" fill="#FFFFFF"></path>
<path d="M31.3611 15.0389C31.3611 16.573 31.1119 17.9178 30.6134 19.076C30.115 20.2342 29.3806 21.1298 28.4077 21.7642C27.4361 22.3986 26.2365 22.7172 24.8104 22.7172C23.3844 22.7172 22.1555 22.3946 21.1839 21.7496C20.2123 21.1045 19.4819 20.2062 18.9928 19.0533C18.5037 17.9005 18.2598 16.5623 18.2598 15.0389C18.2598 13.5156 18.5063 12.1761 18.9995 11.0246C19.4926 9.8717 20.2256 8.9734 21.1972 8.32833C22.1688 7.68326 23.3737 7.36072 24.8091 7.36072C26.2445 7.36072 27.452 7.68592 28.429 8.33499C29.4059 8.98539 30.139 9.88369 30.6268 11.0312C31.1146 12.1788 31.3598 13.5156 31.3598 15.0389H31.3611ZM22.1888 15.0389C22.1888 15.8986 22.2595 16.6929 22.4008 17.4206C22.542 18.1484 22.8033 18.7348 23.1844 19.1786C23.5656 19.6238 24.1081 19.845 24.8104 19.845C25.5128 19.845 26.0806 19.6224 26.4511 19.1786C26.8216 18.7348 27.0762 18.1484 27.2135 17.4206C27.3508 16.6929 27.4187 15.8986 27.4187 15.0389C27.4187 14.1793 27.3508 13.3983 27.2135 12.6652C27.0762 11.9322 26.823 11.3444 26.4511 10.8993C26.0793 10.4555 25.5328 10.2329 24.8104 10.2329C24.0881 10.2329 23.5656 10.4555 23.1844 10.8993C22.8033 11.3444 22.542 11.9322 22.4008 12.6652C22.2595 13.3983 22.1888 14.1886 22.1888 15.0389Z" fill="#FFFFFF"></path>
<path d="M34.383 2.31889C34.8121 2.25091 35.2786 2.20427 35.7824 2.18028C36.2849 2.15628 36.7034 2.14429 37.0352 2.14429C37.3871 2.14429 37.7843 2.15628 38.2294 2.18028C38.6732 2.20427 39.1104 2.25091 39.5409 2.31889L41.7826 10.4663C41.832 10.6622 41.9066 10.9741 42.0092 11.4045C42.1118 11.835 42.2238 12.3082 42.3464 12.8253C42.469 13.3438 42.5783 13.8409 42.6756 14.3194C42.7729 14.7978 42.8462 15.179 42.8955 15.4629H43.0715C43.1208 15.1803 43.1954 14.7992 43.298 14.3194C43.4007 13.8409 43.5099 13.3424 43.6272 12.8253C43.7445 12.3082 43.8565 11.8337 43.9644 11.4045C44.0724 10.9754 44.1497 10.6622 44.199 10.4663L46.4408 2.31889C46.8806 2.25091 47.3204 2.20427 47.7602 2.18028C48.2 2.15628 48.5906 2.14429 48.9331 2.14429C49.2756 2.14429 49.6954 2.15628 50.1926 2.18028C50.691 2.20427 51.1549 2.25091 51.584 2.31889L53.1367 22.2761C52.8528 22.3441 52.5303 22.3961 52.1691 22.4294C51.8079 22.4641 51.4654 22.4801 51.1429 22.4801C50.8403 22.4801 50.5471 22.4707 50.2632 22.4507C49.9793 22.4308 49.6915 22.3974 49.3982 22.3481L48.8411 12.9559C48.8118 12.3308 48.7798 11.6418 48.7465 10.8901C48.7118 10.1384 48.6825 9.38536 48.6585 8.63366C48.6345 7.88197 48.6172 7.19825 48.6065 6.5825H48.4306L44.9867 19.316C44.6935 19.3653 44.3536 19.4013 43.9684 19.4253C43.5819 19.4493 43.2474 19.4613 42.9648 19.4613C42.7103 19.4613 42.3877 19.4493 41.9972 19.4253C41.6067 19.4013 41.2642 19.364 40.971 19.316L37.5417 6.5825H37.3658C37.3564 7.19825 37.3391 7.88197 37.3151 8.63366C37.2911 9.38536 37.2618 10.1384 37.2272 10.8901C37.1925 11.6431 37.1618 12.3308 37.1325 12.9559L36.5461 22.3481C36.2729 22.3974 35.989 22.4308 35.6958 22.4507C35.4026 22.4707 35.104 22.4801 34.8015 22.4801C34.4989 22.4801 34.1511 22.4627 33.7899 22.4294C33.4287 22.3948 33.1062 22.3441 32.8223 22.2761L34.375 2.31889H34.383Z" fill="#FFFFFF"></path>
<path d="M54.3242 18.3497C54.3242 17.1968 54.5854 16.2545 55.1079 15.5215C55.6304 14.7884 56.3247 14.2473 57.1884 13.8955C58.0534 13.5436 59.0023 13.3677 60.0379 13.3677C60.5257 13.3677 61.1095 13.385 61.7892 13.4183C62.4676 13.453 63.0913 13.5329 63.6578 13.6596V16.1359C63.1886 16.0279 62.6449 15.9626 62.0238 15.9386C61.4027 15.9146 60.8536 15.9013 60.3751 15.9013C59.6034 15.9013 59.0277 16.0986 58.6465 16.4944C58.2653 16.8902 58.0747 17.4207 58.0747 18.0844C58.0747 18.5829 58.2186 18.9974 58.5065 19.3293C58.7944 19.6611 59.2023 19.8277 59.73 19.8277C60.3751 19.8277 61.0468 19.5985 61.7452 19.1387C62.4436 18.6802 63.0327 18.0298 63.5112 17.1901L64.0683 19.7984C63.6964 20.2289 63.2619 20.6701 62.7648 21.1245C62.2663 21.579 61.6826 21.9575 61.0135 22.2601C60.3444 22.5626 59.5754 22.7146 58.7051 22.7146C57.7188 22.7146 56.9005 22.4973 56.2501 22.0628C55.5997 21.6283 55.1172 21.0766 54.8 20.4075C54.4828 19.7384 54.3242 19.052 54.3242 18.3483V18.3497ZM67.1017 20.5768C67.0231 20.9193 66.8605 21.2845 66.6112 21.6763C66.362 22.0668 66.1061 22.3547 65.8422 22.5413C65.0999 22.4733 64.4921 22.2627 64.0176 21.9109C63.5432 21.559 63.1846 21.1325 62.9407 20.6287C62.6968 20.1263 62.5396 19.6158 62.4716 19.0974V12.6653C62.4716 11.9029 62.2903 11.3445 61.9292 10.9873C61.568 10.6314 61.0348 10.4529 60.3325 10.4529C59.6301 10.4529 58.9264 10.5581 58.164 10.7674C57.4016 10.978 56.6353 11.2139 55.8636 11.4778C55.5797 11.1646 55.3531 10.7554 55.1825 10.2463C55.0119 9.73847 54.9066 9.24001 54.868 8.7522C55.4837 8.49897 56.1648 8.27373 56.9125 8.07781C57.6602 7.88189 58.4146 7.72862 59.1769 7.61666C59.9393 7.50471 60.6417 7.44873 61.2867 7.44873C62.1957 7.44873 63.026 7.61533 63.7777 7.94719C64.5294 8.27906 65.1359 8.80952 65.5943 9.53722C66.0528 10.2649 66.2834 11.2205 66.2834 12.4014V18.3803C66.2834 18.8694 66.3447 19.2959 66.466 19.6625C66.5886 20.029 66.8005 20.3342 67.1031 20.5781L67.1017 20.5768Z" fill="#FFFFFF"></path>
<path d="M67.4681 9.54392C67.5468 9.20273 67.7094 8.83354 67.9586 8.4377C68.2078 8.04186 68.4637 7.74731 68.7276 7.55139C69.9005 7.70733 70.7761 8.20313 71.3572 9.03879C71.9383 9.87446 72.2822 10.9514 72.3902 12.2695V22.3214C72.1356 22.3707 71.841 22.4041 71.5038 22.424C71.1666 22.444 70.8268 22.4534 70.4856 22.4534C70.1444 22.4534 69.8192 22.444 69.482 22.424C69.1448 22.4041 68.8396 22.3707 68.5664 22.3214V12.5774C68.5664 11.747 68.4437 11.0833 68.1998 10.5848C67.9559 10.0864 67.7107 9.73984 67.4668 9.54392H67.4681ZM77.4614 7.76997C77.4614 8.24845 77.3828 8.83488 77.2269 9.52793C77.0709 10.2223 76.831 10.8327 76.5085 11.3592C76.2832 11.2912 76.0593 11.2366 75.8341 11.1979C75.6088 11.1593 75.3849 11.1393 75.1597 11.1393C74.6812 11.1393 74.2627 11.2326 73.9069 11.4178C73.5497 11.6031 73.2351 11.855 72.9619 12.1722C72.6887 12.4894 72.4435 12.8586 72.2289 13.2784C72.0143 13.6982 71.8237 14.1434 71.6571 14.6112L71.1733 13.9955C71.212 13.2331 71.3119 12.4761 71.4732 11.7244C71.6345 10.9727 71.881 10.281 72.2129 9.65054C72.5447 9.02013 72.9966 8.515 73.5683 8.13382C74.1401 7.75264 74.8505 7.56206 75.7008 7.56206C76.062 7.56206 76.3752 7.57938 76.6391 7.6127C76.903 7.64736 77.1762 7.698 77.4601 7.76597L77.4614 7.76997Z" fill="#FFFFFF"></path>
<path d="M82.2538 21.5884H78.502V0.956706L78.6925 0.766113H80.1426C80.905 0.766113 81.4461 0.944709 81.7686 1.30057C82.0912 1.65775 82.2524 2.26551 82.2524 3.12516V21.5884H82.2538ZM91.0022 14.8484C91.0115 16.4891 90.7183 17.8872 90.1226 19.0387C89.5268 20.1916 88.7032 21.0686 87.6529 21.6683C86.6027 22.2694 85.3992 22.5693 84.041 22.5693C83.0441 22.5693 82.0725 22.4813 81.1249 22.3054C80.1773 22.1295 79.303 21.8909 78.502 21.587L80.3479 18.7149C80.9143 19.076 81.5061 19.3453 82.1205 19.5212C82.7362 19.6971 83.3946 19.7851 84.0984 19.7851C84.7328 19.7851 85.2725 19.5972 85.7177 19.2213C86.1615 18.8455 86.5014 18.2937 86.736 17.566C86.9705 16.8383 87.0878 15.9573 87.0878 14.9217C87.0878 13.3983 86.8826 12.3014 86.4721 11.6324C86.0616 10.9633 85.5151 10.6288 84.8314 10.6288C84.265 10.6088 83.6839 10.7901 83.0881 11.1712C82.4923 11.5524 82.0032 12.0895 81.6233 12.7826L81.0662 9.80779C81.4181 9.41728 81.8259 9.04543 82.2897 8.69358C82.7536 8.34172 83.284 8.0565 83.8798 7.83659C84.4755 7.61668 85.1353 7.50739 85.8576 7.50739C87.0105 7.50739 87.9648 7.82193 88.7218 8.45234C89.4788 9.08275 90.0479 9.94907 90.4291 11.0526C90.8103 12.1562 91.0009 13.421 91.0009 14.8471L91.0022 14.8484Z" fill="#FFFFFF"></path>
<path d="M98.1816 19.4932C98.2696 19.7664 98.3429 20.065 98.4015 20.3875C98.4602 20.7101 98.4895 21.0326 98.4895 21.3551C98.4895 21.4924 98.4842 21.6364 98.4748 21.787C98.4655 21.9389 98.4402 22.0828 98.4015 22.2188C98.011 22.2774 97.5619 22.3307 97.0541 22.3801C96.5463 22.4294 96.0478 22.4534 95.56 22.4534C94.4165 22.4534 93.5848 22.1628 93.061 21.5817C92.5386 21.0006 92.2773 20.1036 92.2773 18.8935V0.958045L92.4826 0.767456H93.962C94.7337 0.767456 95.2708 0.946052 95.5733 1.30191C95.8759 1.6591 96.0278 2.26685 96.0278 3.1265V18.1604C96.0278 18.5909 96.1251 18.9201 96.321 19.1494C96.517 19.3786 96.8235 19.4932 97.2447 19.4932H98.183H98.1816Z" fill="#FFFFFF"></path>
<path d="M101.244 16.2691V13.5875H107.546V13.221C107.546 12.6639 107.467 12.1508 107.311 11.683C107.155 11.2138 106.901 10.838 106.549 10.5541C106.197 10.2715 105.728 10.1289 105.143 10.1289C104.293 10.1289 103.675 10.4835 103.289 11.1912C102.902 11.9002 102.711 12.9225 102.711 14.2606V15.4188C102.711 16.2105 102.787 16.9328 102.937 17.5872C103.089 18.2416 103.381 18.7614 103.817 19.148C104.251 19.5345 104.884 19.7264 105.715 19.7264C106.418 19.7264 107.099 19.6318 107.759 19.4412C108.419 19.2506 109.051 19.0133 109.657 18.7308C109.95 19.024 110.192 19.3905 110.382 19.8303C110.573 20.2702 110.693 20.6847 110.741 21.0752C110.028 21.5936 109.171 21.9961 108.17 22.284C107.169 22.5719 106.15 22.7158 105.115 22.7158C103.883 22.7158 102.862 22.5079 102.052 22.0934C101.242 21.6789 100.599 21.1112 100.125 20.3941C99.6505 19.6757 99.3159 18.8601 99.1213 17.9471C98.9254 17.0341 98.8281 16.0892 98.8281 15.1122C98.8281 13.6475 99.0534 12.3307 99.5025 11.1632C99.9517 9.99566 100.646 9.07069 101.583 8.38697C102.521 7.70325 103.717 7.36072 105.174 7.36072C106.453 7.36072 107.535 7.63661 108.419 8.18838C109.303 8.74016 109.977 9.48519 110.441 10.4235C110.905 11.3618 111.136 12.416 111.136 13.5889C111.136 14.1553 111.112 14.6324 111.063 15.0176C111.014 15.4041 110.937 15.8213 110.829 16.2704H101.246L101.244 16.2691Z" fill="#FFFFFF"></path>
</svg></defs><use href="#svg-189453272_11280"></use></svg>